<svg width="39" height="28" viewBox="0 0 39 28" fill="none" xmlns="http://www.w3.org/2000/svg">
<path d="M31.6394 5.64627C31.0513 5.99053 30.4363 6.38801 29.7945 6.83871C28.7782 7.55454 27.9754 8.23126 27.3861 8.86884C26.7967 9.5331 26.4482 9.99834 26.3404 10.2646C26.2059 10.5573 26.1517 10.7571 26.1779 10.8639C26.2041 10.9973 26.2436 11.1042 26.2966 11.1844C26.5098 11.2119 26.8034 11.1598 27.1773 11.028C28.6993 10.5276 29.783 9.63869 30.4282 8.36132C31.0736 7.05729 31.4773 6.15228 31.6394 5.64627ZM34.2208 10.1769C34.1939 10.2301 34.1805 10.2567 34.1805 10.2567C33.0244 12.5453 31.1379 14.1243 28.521 14.9936C26.6517 15.6259 25.1188 15.5263 23.9222 14.6947C23.1244 14.1581 22.5676 13.3824 22.2517 12.3678C22.1992 12.1809 22.1465 12.0074 22.0939 11.8472C21.7535 10.2991 22.0662 8.84701 23.0318 7.49096C23.9973 6.13491 25.4563 4.76756 27.4086 3.38889C28.1307 2.88518 28.7591 2.46109 29.2939 2.11661C29.8018 1.7987 30.4432 1.46799 31.218 1.1245C31.966 0.780902 32.6336 0.570306 33.2206 0.492714C33.7809 0.415013 34.3807 0.470808 35.0199 0.660099C35.6323 0.875948 36.164 1.27813 36.615 1.86665C37.3049 2.69616 37.7807 3.72479 38.0423 4.95254C38.2773 6.18018 38.4043 7.71405 38.4234 9.55414C38.4354 13.1276 37.6763 16.1645 36.146 18.6649C34.6425 21.1387 32.9551 22.9451 31.0837 24.0841C29.3193 25.1436 27.5828 25.9231 25.8741 26.4228L23.5515 27.0533C22.9908 27.211 22.4578 27.1421 21.9523 26.8467C21.4467 26.578 21.1151 26.1633 20.9574 25.6026C20.7997 25.042 20.8685 24.5089 21.164 24.0034C21.4594 23.498 21.8741 23.1663 22.4081 23.0085L24.7307 22.3781C26.0656 21.9835 27.4549 21.3626 28.8983 20.5151C30.1816 19.7204 31.4005 18.3787 32.5549 16.4901C33.6019 14.7877 34.1572 12.6833 34.2208 10.1769ZM11.2489 5.5626C10.6609 5.90685 10.0459 6.30433 9.40403 6.75504C8.38775 7.47087 7.58497 8.14758 6.99568 8.78517C6.40628 9.44942 6.0577 9.91466 5.94994 10.1809C5.81541 10.4737 5.76125 10.6735 5.78748 10.7802C5.8136 10.9137 5.85316 11.0205 5.90617 11.1007C6.11939 11.1283 6.41294 11.0761 6.78682 10.9443C8.30888 10.4439 9.39254 9.55501 10.0378 8.27765C10.6831 6.97362 11.0869 6.0686 11.2489 5.5626ZM13.8304 10.0932C13.8035 10.1465 13.79 10.1731 13.79 10.1731C12.634 12.4617 10.7475 14.0406 8.13055 14.9099C6.26127 15.5422 4.72834 15.4426 3.53174 14.611C2.73393 14.0744 2.17711 13.2988 1.86128 12.2841C1.80871 12.0972 1.75609 11.9237 1.70341 11.7635C1.3631 10.2154 1.67572 8.76334 2.6413 7.40729C3.60687 6.05124 5.06583 4.68388 7.01817 3.30522C7.74025 2.80151 8.36866 2.37742 8.90341 2.03294C9.41139 1.71502 10.0528 1.38432 10.8275 1.04083C11.5756 0.697228 12.2431 0.486633 12.8301 0.409041C13.3904 0.331339 13.9902 0.387134 14.6294 0.576426C15.2419 0.792274 15.7736 1.19446 16.2245 1.78298C16.9144 2.61249 17.3902 3.64111 17.6518 4.86886C17.8868 6.09651 18.0138 7.63037 18.033 9.47047C18.045 13.0439 17.2858 16.0808 15.7555 18.5812C14.252 21.0551 12.5646 22.8615 10.6933 24.0005C8.92889 25.0599 7.19235 25.8395 5.48362 26.3391L3.16101 26.9696C2.60036 27.1273 2.0673 27.0584 1.56184 26.763C1.05627 26.4943 0.72464 26.0796 0.56694 25.5189C0.40924 24.9583 0.478096 24.4252 0.773506 23.9198C1.06892 23.4143 1.48361 23.0827 2.0176 22.9249L4.34021 22.2944C5.67517 21.8999 7.0644 21.2789 8.50789 20.4315C9.79116 19.6367 11.01 18.2951 12.1644 16.4064C13.2114 14.7041 13.7667 12.5997 13.8304 10.0932Z" fill="white"/>
</svg>
