<svg width="41" height="30" viewBox="0 0 41 30" fill="none" xmlns="http://www.w3.org/2000/svg">
<path d="M8.72575 23.9073C9.29447 23.532 9.88719 23.102 10.5039 22.6175C11.4802 21.8481 12.2455 21.1292 12.7996 20.4608C13.3525 19.7659 13.6755 19.2826 13.7688 19.0109C13.8874 18.7113 13.9308 18.5089 13.8988 18.4037C13.8656 18.2719 13.8203 18.1673 13.7631 18.0901C13.5487 18.074 13.2584 18.1419 12.8921 18.2936C11.3992 18.8751 10.3648 19.8209 9.7892 21.1311C9.21487 22.4679 8.86039 23.3934 8.72575 23.9073ZM5.9045 19.522C5.92848 19.4674 5.94048 19.4401 5.94048 19.4401C6.97185 17.0927 8.77074 15.4146 11.3372 14.406C13.1697 13.6741 14.7058 13.6912 15.9454 14.4573C16.7709 14.9502 17.3686 15.6948 17.7385 16.691C17.8011 16.8748 17.8629 17.0453 17.9241 17.2024C18.3472 18.73 18.1131 20.1967 17.2218 21.6027C16.3305 23.0087 14.9472 24.4525 13.0718 25.9341C12.3778 26.4759 11.7731 26.9331 11.2576 27.3058C10.7675 27.6506 10.1448 28.0153 9.38965 28.3999C8.66112 28.7832 8.00587 29.0294 7.4239 29.1384C6.86856 29.2461 6.26665 29.2226 5.61817 29.068C4.995 28.8854 4.44247 28.5123 3.96056 27.9489C3.22703 27.1577 2.69664 26.1561 2.36939 24.9442C2.06877 23.7309 1.85946 22.2061 1.74146 20.3697C1.53738 16.8021 2.13217 13.7288 3.52582 11.1498C4.89416 8.59867 6.48205 6.70418 8.28947 5.46626C9.99433 4.31353 11.6865 3.44179 13.3659 2.85102L15.6512 2.09663C16.2026 1.90903 16.7386 1.94914 17.2592 2.21696C17.7785 2.45814 18.1319 2.85442 18.3195 3.40578C18.5071 3.95715 18.467 4.49313 18.1992 5.01374C17.9314 5.53434 17.5351 5.88778 17.0104 6.07406L14.7251 6.82845C13.4132 7.29415 12.0594 7.98888 10.6635 8.91265C9.42484 9.7752 8.27988 11.1804 7.22864 13.1284C6.27467 14.8846 5.83329 17.0158 5.9045 19.522ZM29.0912 22.8951C29.66 22.5197 30.2527 22.0897 30.8694 21.6052C31.8457 20.8358 32.6109 20.1169 33.1651 19.4486C33.7179 18.7536 34.041 18.2703 34.1343 17.9987C34.2529 17.6991 34.2962 17.4967 34.2643 17.3915C34.2311 17.2596 34.1858 17.1551 34.1286 17.0778C33.9142 17.0618 33.6239 17.1296 33.2576 17.2813C31.7646 17.8628 30.7303 18.8087 30.1547 20.1188C29.5804 21.4557 29.2259 22.3811 29.0912 22.8951ZM26.27 18.5097C26.294 18.4551 26.306 18.4278 26.306 18.4278C27.3373 16.0804 29.1362 14.4024 31.7026 13.3937C33.5352 12.6618 35.0713 12.6789 36.3109 13.445C37.1364 13.938 37.7341 14.6825 38.104 15.6787C38.1665 15.8625 38.2284 16.033 38.2896 16.1902C38.7127 17.7177 38.4786 19.1845 37.5873 20.5904C36.696 21.9964 35.3126 23.4402 33.4372 24.9218C32.7433 25.4636 32.1386 25.9208 31.6231 26.2936C31.133 26.6383 30.5103 27.003 29.7551 27.3876C29.0266 27.771 28.3714 28.0171 27.7894 28.1261C27.234 28.2338 26.6321 28.2104 25.9837 28.0557C25.3605 27.8731 24.8079 27.5 24.326 26.9366C23.5925 26.1454 23.0621 25.1438 22.7349 23.9319C22.4343 22.7187 22.2249 21.1938 22.1069 19.3574C21.9029 15.7898 22.4977 12.7165 23.8913 10.1375C25.2596 7.5864 26.8475 5.6919 28.655 4.45398C30.3598 3.30126 32.052 2.42951 33.7314 1.83875L36.0167 1.08436C36.5681 0.896757 37.1041 0.936865 37.6247 1.20468C38.144 1.44587 38.4974 1.84214 38.685 2.39351C38.8726 2.94488 38.8325 3.48086 38.5647 4.00146C38.2969 4.52207 37.9006 4.87551 37.3759 5.06179L35.0905 5.81617C33.7787 6.28187 32.4249 6.97661 31.029 7.90037C29.7903 8.76293 28.6454 10.1682 27.5941 12.1161C26.6402 13.8723 26.1988 16.0035 26.27 18.5097Z" fill="white"/>
</svg>
